<?xml version="1.0" standalone="no"?>
<!DOCTYPE svg PUBLIC "-//W3C//DTD SVG 20010904//EN"
 "http://www.w3.org/TR/2001/REC-SVG-20010904/DTD/svg10.dtd">
<svg version="1.0" xmlns="http://www.w3.org/2000/svg"
 width="16.000000pt" height="16.000000pt" viewBox="0 0 16.000000 16.000000"
 preserveAspectRatio="xMidYMid meet">
<metadata>
Created by potrace 1.11, written by Peter Selinger 2001-2013
</metadata>
<g transform="translate(0.000000,16.000000) scale(0.003002,-0.003002)"
fill="#000000" stroke="none">
<path d="M2606 4731 c-2 -3 -9 -42 -16 -86 -35 -238 -121 -421 -271 -577 -131
-136 -282 -227 -420 -253 -81 -15 -75 -8 -73 -88 1 -40 2 -75 3 -79 0 -4 83
-7 184 -7 100 0 193 0 207 0 l25 -1 1 -1023 c0 -562 3 -1040 7 -1062 14 -92
21 -114 58 -191 82 -174 225 -246 474 -240 190 5 315 48 410 141 86 85 125
199 140 415 9 132 13 290 6 291 -41 5 -161 5 -162 0 0 -3 -2 -53 -4 -111 -6
-173 -13 -230 -45 -331 -32 -99 -85 -148 -167 -154 -85 -7 -157 51 -185 149
-8 30 -12 318 -12 1079 l-1 1037 55 1 c30 0 154 1 275 2 l220 2 3 78 c2 68 1
77 -15 78 -10 1 -135 2 -278 3 l-260 1 0 465 0 464 -78 2 c-43 0 -79 -2 -81
-5z"/>
<path d="M1826 481 c-1 -3 -2 -53 -2 -111 l2 -105 839 0 840 0 2 111 2 111
-840 0 c-462 0 -841 -3 -843 -6z"/>
</g>
</svg>
