<svg xmlns="http://www.w3.org/2000/svg" viewBox="0 0 93.5 33.78"><title>tweed-logo</title><path d="M0,7.8a5.58,5.58,0,0,0,1.87-.62A7,7,0,0,0,4.3,4.68a6.69,6.69,0,0,0,.9-3.16H6.28V7.77H10V8.84H6.28V22.3c0,1.08.49,1.77,1.25,1.77,1.08,0,1.53-1.11,1.53-3.64V20l1.11,0v0.31c0,0.24,0,.42,0,1.35a7.33,7.33,0,0,1-.31,1.94C9.5,25,8.19,25.73,6.21,25.73c-2.25,0-3.4-1.28-3.4-3.85v-13H0v-1Z"/><path d="M12.28,7.77h8.53V8.71h-1a1,1,0,0,0-1.21.87,2.19,2.19,0,0,0,.17.73l3.88,10.65,2.71-8.08L24.59,10.3a2.12,2.12,0,0,0-2-1.6h-1V7.77h8.88V8.71h-1c-0.9,0-1.42.38-1.42,1a2.56,2.56,0,0,0,.1.62L31.8,21.09,35.62,10.3a1.76,1.76,0,0,0,.1-0.59c0-.62-0.59-1-1.63-1h-1V7.77h7.08V8.71h-1a2.37,2.37,0,0,0-2.32,1.6L31.53,25.39H29.65L26,14.6,22.4,25.39H20.53L15.05,10.3a2.05,2.05,0,0,0-1.8-1.6h-1V7.77Z"/><path d="M44.12,16.79V17a8.92,8.92,0,0,0,.56,3.68c0.94,2.67,2.22,3.71,4.51,3.71,2.64,0,4.4-1.77,5-4.92h1.18a5.87,5.87,0,0,1-.52,2.29,6.58,6.58,0,0,1-6.31,4.06c-4.61,0-8-3.85-8-9.19s3.36-9.19,7.84-9.19a6.72,6.72,0,0,1,6.42,4.47,13.59,13.59,0,0,1,.73,4.89H44.12Zm0.07-1.21h7.7V14.91c0-4-1.35-6.45-3.64-6.45s-3.47,1.77-3.88,5.38A14,14,0,0,0,44.19,15.57Z"/><path d="M62.08,16.79V17a8.92,8.92,0,0,0,.56,3.68c0.94,2.67,2.22,3.71,4.51,3.71,2.64,0,4.4-1.77,5-4.92h1.18a5.87,5.87,0,0,1-.52,2.29,6.58,6.58,0,0,1-6.31,4.06c-4.61,0-8-3.85-8-9.19s3.36-9.19,7.84-9.19a6.72,6.72,0,0,1,6.42,4.47,13.59,13.59,0,0,1,.73,4.89H62.08Zm0.07-1.21h7.7V14.91c0-4-1.35-6.45-3.64-6.45s-3.47,1.77-3.88,5.38A14,14,0,0,0,62.15,15.57Z"/><path d="M87.47,3.05a1.44,1.44,0,0,0-1.6-1.63h-1V0.52h1c0.8,0,1.46,0,2.32-.1A16.59,16.59,0,0,0,90.9,0V22.82a1.47,1.47,0,0,0,1.59,1.63h1v0.94h-6v-2.6c-1.39,2.08-2.81,3-4.68,3-3.61,0-6.35-3.78-6.35-8.74,0-5.34,3.19-9.61,7.21-9.61a4.8,4.8,0,0,1,3.82,1.73V3.05Zm0,15.75V13.08c0-2.57-1.42-4.4-3.36-4.4-2.53,0-3.81,2.84-3.81,8.29,0,4.89,1.11,7.18,3.47,7.18a4.13,4.13,0,0,0,3.47-2.95A8.59,8.59,0,0,0,87.43,18.8Z"/><rect x="17.06" y="32.28" width="59.79" height="1.5"/></svg>